<?xml version="1.0"?>
<svg xmlns="http://www.w3.org/2000/svg" viewBox="0 0 64 64" width="512" height="512"><g id="car_service-car_repair_center-auto_repair_center-car-repair" data-name="car service-car repair center-auto repair center-car-repair"><path d="M34,54H50a3,3,0,0,0,3-3V37a3,3,0,0,0-3-3H34a3,3,0,0,0-3,3V51A3,3,0,0,0,34,54ZM33,37a1,1,0,0,1,1-1H50a1,1,0,0,1,1,1V51a1,1,0,0,1-1,1H34a1,1,0,0,1-1-1Z"/><path d="M47,43h2V39a1,1,0,0,0-1-1H44v2h3Z"/><rect x="22" y="47" width="2" height="2"/><path d="M59,56H57V31.9A5.017,5.017,0,0,0,61,27a.66.66,0,0,0-.01-.14L59.24,14.58A3.02,3.02,0,0,0,56.27,12H49V5a3.009,3.009,0,0,0-3-3H18a3.009,3.009,0,0,0-3,3v7H7.73a3.02,3.02,0,0,0-2.97,2.58L3.01,26.86A.66.66,0,0,0,3,27a5.017,5.017,0,0,0,4,4.9V56H5a3,3,0,0,0,0,6H59a3,3,0,0,0,0-6ZM53,14h3.27a.991.991,0,0,1,.98.86L59,27.07A3,3,0,0,1,53,27Zm-4,9V14h2V27a3,3,0,0,1-6,0V26h1A3.009,3.009,0,0,0,49,23ZM17,5a1,1,0,0,1,1-1H46a1,1,0,0,1,1,1V23a1,1,0,0,1-1,1H29V19.32a6.919,6.919,0,0,0,2-1.46V19a1,1,0,0,0,1,1h3.18a2.988,2.988,0,0,0,5.64,0H44a1,1,0,0,0,1-1V15a3.009,3.009,0,0,0-3-3H41V9a3.009,3.009,0,0,0-3-3H32a1,1,0,0,0-1,1V8.1a6.884,6.884,0,0,0-2.67-1.69,1.01,1.01,0,0,0-.91.12,1.028,1.028,0,0,0-.42.82V12H25V7.35a1.028,1.028,0,0,0-.42-.82,1.01,1.01,0,0,0-.91-.12A6.989,6.989,0,0,0,23,19.32V24H18a1,1,0,0,1-1-1ZM43,26v1a3,3,0,0,1-6,0V26ZM25,24V18.65a1,1,0,0,0-.67-.94A5,5,0,0,1,23,9v4a1,1,0,0,0,1,1h4a1,1,0,0,0,1-1V9a5,5,0,0,1-1.33,8.71,1,1,0,0,0-.67.94V24Zm2,2v1a3,3,0,0,1-6,0V26Zm2,0h6v1a3,3,0,0,1-6,0ZM42,14a1,1,0,0,1,1,1v3H40.82a2.988,2.988,0,0,0-5.64,0H33V14Zm-9-2V8h5a1,1,0,0,1,1,1v3Zm6,7a1,1,0,1,1-1-1A1,1,0,0,1,39,19ZM13,14h2v9a3.009,3.009,0,0,0,3,3h1v1a3,3,0,0,1-6,0ZM12,30a5,5,0,0,0,8,0,5,5,0,0,0,8,0,5,5,0,0,0,8,0,5,5,0,0,0,8,0,5,5,0,0,0,8,0,4.994,4.994,0,0,0,3,1.89V56H27V42a8,8,0,0,0-16,0V56H9V31.89A4.994,4.994,0,0,0,12,30ZM25,42V56H13V42a6,6,0,0,1,12,0ZM5,27.07,6.75,14.86A.991.991,0,0,1,7.73,14H11V27a3,3,0,0,1-6,.07ZM59,60H5a1,1,0,0,1,0-2H59a1,1,0,0,1,0,2Z"/></g></svg>
