<?xml version="1.0" encoding="iso-8859-1"?>
<!-- Generator: Adobe Illustrator 19.0.0, SVG Export Plug-In . SVG Version: 6.00 Build 0)  -->
<svg version="1.1" id="Capa_1" xmlns="http://www.w3.org/2000/svg" xmlns:xlink="http://www.w3.org/1999/xlink" x="0px" y="0px"
	 viewBox="0 0 512.001 512.001" style="enable-background:new 0 0 512.001 512.001;" xml:space="preserve">
<g>
	<g>
		<path d="M216,368.742h-0.08c-4.142,0-7.46,3.358-7.46,7.5c0,4.142,3.398,7.5,7.54,7.5c4.142,0,7.5-3.358,7.5-7.5
			C223.5,372.1,220.142,368.742,216,368.742z"/>
	</g>
</g>
<g>
	<g>
		<path d="M504.5,344.693c-4.142,0-7.5,3.358-7.5,7.5v8.016c0,0.285-0.231,0.516-0.516,0.516h-32.581V296.08
			c0-8.556-6.96-15.516-15.516-15.516h-16.548V159.807c0-39.497-32.133-71.629-71.629-71.629H71.629
			C32.133,88.177,0,120.31,0,159.807v144.29c0,39.496,32.133,71.629,71.629,71.629h96.723c-0.002,0.173-0.013,0.343-0.013,0.516
			c0,26.236,21.345,47.581,47.581,47.581c26.236,0,47.581-21.345,47.581-47.581c0-0.173-0.011-0.343-0.013-0.516h232.997
			c8.556,0,15.516-6.96,15.516-15.516v-8.016C512,348.051,508.642,344.693,504.5,344.693z M215.919,408.823
			c-17.965,0-32.581-14.616-32.581-32.581c0-17.965,14.616-32.581,32.581-32.581c17.965,0,32.581,14.616,32.581,32.581
			C248.5,394.207,233.884,408.823,215.919,408.823z M360.725,360.726h-65.161V247.468h65.161V360.726z M360.726,232.468h-65.161
			v-33.097h65.161V232.468z M360.726,184.371h-65.162v-0.516c0-17.965,14.616-32.581,32.581-32.581
			c17.965,0,32.581,14.616,32.581,32.581V184.371z M328.145,136.275c-26.236,0-47.581,21.344-47.581,47.58v96.709h-24.567
			c-4.142,0-7.5,3.358-7.5,7.5c0,4.142,3.358,7.5,7.5,7.5h24.567v65.161h-19.676c-6.45-18.638-24.166-32.064-44.969-32.064
			s-38.519,13.426-44.969,32.064H71.629C40.404,360.726,15,335.322,15,304.097v-8.532h208.936c4.142,0,7.5-3.358,7.5-7.5
			c0-4.142-3.358-7.5-7.5-7.5H15V159.807c0-31.226,25.404-56.629,56.629-56.629H360.21c31.226,0,56.629,25.404,56.629,56.629
			v120.758h-41.113v-96.709C375.726,157.62,354.381,136.275,328.145,136.275z M375.726,358.547v-62.982h41.113v8.532
			C416.839,329.941,399.429,351.782,375.726,358.547z M403.994,360.726c16.921-13.113,27.844-33.614,27.844-56.629v-8.532h16.548
			c0.285,0,0.516,0.231,0.516,0.516v64.645H403.994z"/>
	</g>
</g>
<g>
	<g>
		<path d="M207.903,168.339H79.645c-12.976,0-23.532,10.557-23.532,23.532v48.097c0,12.976,10.557,23.532,23.532,23.532h128.258
			c12.976,0,23.532-10.557,23.532-23.532v-48.097C231.436,178.896,220.879,168.339,207.903,168.339z M136.274,248.5H79.645
			c-4.705,0-8.532-3.828-8.532-8.532v-48.097c0-4.705,3.828-8.532,8.532-8.532h56.629V248.5z M216.436,239.968
			c0,4.705-3.828,8.532-8.532,8.532h-56.629v-65.161h56.629c4.705,0,8.532,3.828,8.532,8.532V239.968z"/>
	</g>
</g>
<g>
</g>
<g>
</g>
<g>
</g>
<g>
</g>
<g>
</g>
<g>
</g>
<g>
</g>
<g>
</g>
<g>
</g>
<g>
</g>
<g>
</g>
<g>
</g>
<g>
</g>
<g>
</g>
<g>
</g>
</svg>
