<?xml version="1.0"?>
<svg xmlns="http://www.w3.org/2000/svg" viewBox="0 0 64 64" width="512" height="512"><g id="outline"><path d="M48,40a4,4,0,1,0,4,4A4,4,0,0,0,48,40Zm0,6a2,2,0,1,1,2-2A2,2,0,0,1,48,46Z"/><rect x="54" y="34" width="4" height="2"/><path d="M61,18H46a1,1,0,0,0-.844.463L38.451,29H35a1,1,0,0,0-1,1V40H30v2H29a1,1,0,0,1-1-1V30a3,3,0,0,0-6,0v3a1,1,0,0,1-1,1H20V30H15V22h5V12H2V22H7v8H2V40H5.382l-1,2H2v6H4v1a3,3,0,0,0,6,0V48h2v1a3,3,0,0,0,6,0V48h2V42H17.618l-1-2H20V36h1a3,3,0,0,0,3-3V30a1,1,0,0,1,2,0V41a3,3,0,0,0,3,3h1v2H40.263a7.988,7.988,0,0,0,15.474,0H61a1,1,0,0,0,1-1V19A1,1,0,0,0,61,18ZM14,20H8V18h6ZM4,20V14H18v6H16V16H6v4Zm5,2h4v8H9ZM8,49a1,1,0,0,1-2,0V48H8Zm8,0a1,1,0,0,1-2,0V48h2Zm2-3H4V44H18Zm-2.618-4H6.618l1-2h6.764ZM18,38H4V32H18ZM53.293,26.293,49.586,30H44.805l3.75-6H60v6H52.414l2.293-2.293ZM46.549,20H60v2H48a1,1,0,0,0-.848.47l-5,8A1,1,0,0,0,43,32H60v8H54.918a7.982,7.982,0,0,0-13.836,0H36V35h3a1,1,0,0,0,1-1V30.292ZM36,31h2v2H36ZM32,42h2v2H32Zm4,2V42h4.263A7.953,7.953,0,0,0,40,44Zm12,6a6,6,0,1,1,6-6A6.006,6.006,0,0,1,48,50Zm12-6H56a7.953,7.953,0,0,0-.263-2H60Z"/><rect x="6" y="34" width="2" height="2"/><rect x="10" y="34" width="2" height="2"/><rect x="14" y="34" width="2" height="2"/><path d="M31,28a3,3,0,0,0,3-3,3.064,3.064,0,0,0-.045-.516,3.949,3.949,0,0,0,.875-.666A3.839,3.839,0,0,0,36,24a4,4,0,1,0-2.831-6.818A3.832,3.832,0,0,0,32,17a4,4,0,0,0-4,4,3.951,3.951,0,0,0,.643,2.156A2.973,2.973,0,0,0,28,25,3,3,0,0,0,31,28Zm-.3-5.5A1.966,1.966,0,0,1,30,21a2,2,0,0,1,2-2,1.966,1.966,0,0,1,.977.27,1,1,0,0,0,1.338-.335A2,2,0,1,1,36,22a1.966,1.966,0,0,1-.977-.27,1,1,0,0,0-1.338.334,1.978,1.978,0,0,1-1.233.877,1,1,0,0,0-.615,1.517A.986.986,0,0,1,32,25a1,1,0,1,1-1.476-.87A1,1,0,0,0,30.7,22.5Z"/></g></svg>
