<svg id="Capa_1" enable-background="new 0 0 512 512" height="512" viewBox="0 0 512 512" width="512" xmlns="http://www.w3.org/2000/svg"><g><path d="m492.75 229.794v-20.934c0-12.407-10.094-22.5-22.5-22.5h-57.487l-16.645-44.727c-5.303-14.244-17.129-24.883-31.298-29.028v-19.105h24.68c7.995 0 14.5-6.505 14.5-14.5v-16c0-7.995-6.505-14.5-14.5-14.5h-267c-7.995 0-14.5 6.505-14.5 14.5v16c0 7.995 6.505 14.5 14.5 14.5h24.68v19.105c-14.169 4.146-25.996 14.784-31.299 29.029l-16.644 44.726h-57.487c-12.407 0-22.5 10.093-22.5 22.5v20.935c-12.161 10.678-19.25 26.126-19.25 42.544v113.661c0 9.649 7.851 17.5 17.5 17.5h5.973v42.5c0 9.649 7.851 17.5 17.5 17.5h70.054c9.649 0 17.5-7.851 17.5-17.5v-42.5h142.127c4.143 0 7.5-3.358 7.5-7.5s-3.357-7.5-7.5-7.5h-104.814v-23.26c0-4.136 3.364-7.5 7.5-7.5h51.528c8.436 7.064 19.294 11.327 31.132 11.327s22.696-4.263 31.132-11.327h51.528c4.136 0 7.5 3.364 7.5 7.5v23.26h-40.506c-4.143 0-7.5 3.358-7.5 7.5s3.357 7.5 7.5 7.5h77.819v42.5c0 9.649 7.851 17.5 17.5 17.5h70.053c9.649 0 17.5-7.851 17.5-17.5v-42.5h5.974c9.649 0 17.5-7.851 17.5-17.5v-113.661c0-16.419-7.088-31.867-19.25-42.545zm-22.5-28.434c4.136 0 7.5 3.364 7.5 7.5v11.461c-13.639-5.875-29.177-6.214-43.261-.631l-8.124 3.221-8.02-21.55h51.905zm-347.25-122.86v-15h266v15h-139.33c-4.142 0-7.5 3.358-7.5 7.5s3.358 7.5 7.5 7.5h100.15v17.2h-187.64v-17.2h52.49c4.142 0 7.5-3.358 7.5-7.5s-3.358-7.5-7.5-7.5zm6.939 68.367c4.713-12.66 16.955-21.167 30.461-21.167h191.2c13.507 0 25.748 8.506 30.461 21.166l30.357 81.574-13.529 5.364c-6.185 2.453-12.694 3.696-19.349 3.696h-247.08c-6.654 0-13.164-1.243-19.35-3.696l-13.529-5.364zm216.221 105.633v23.26c0 4.136-3.364 7.5-7.5 7.5h-51.528c-8.436-7.064-19.294-11.327-31.132-11.327s-22.696 4.263-31.132 11.327h-51.528c-4.136 0-7.5-3.364-7.5-7.5v-23.26zm-311.91-43.64c0-4.136 3.364-7.5 7.5-7.5h51.904l-8.02 21.551-8.124-3.221c-14.083-5.584-29.621-5.245-43.26.631zm-19.25 99.021h47.558c12.407 0 22.5 10.093 22.5 22.5v2.738h-70.058zm98.527 138.119c0 1.378-1.122 2.5-2.5 2.5h-70.054c-1.378 0-2.5-1.122-2.5-2.5v-42.5h75.054zm99.32-103.26h-39.507c-12.407 0-22.5 10.093-22.5 22.5v23.26h-133.34c-1.378 0-2.5-1.122-2.5-2.5v-37.881h75.558c5.238 0 9.5-4.262 9.5-9.5v-8.238c0-20.678-16.822-37.5-37.5-37.5h-47.558v-20.542c.005-29.357 29.829-49.472 56.982-38.705 12.614 5.002 23.949 9.496 35.601 14.115 7.953 3.153 16.323 4.751 24.878 4.751h18.379v23.26c0 12.407 10.093 22.5 22.5 22.5h39.507c-3.451 6.669-5.414 14.227-5.414 22.24s1.963 15.571 5.414 22.24zm43.153 11.327c-18.509 0-33.567-15.058-33.567-33.567s15.058-33.567 33.567-33.567 33.567 15.058 33.567 33.567-15.058 33.567-33.567 33.567zm217.526 91.933c0 1.378-1.121 2.5-2.5 2.5h-70.053c-1.379 0-2.5-1.122-2.5-2.5v-42.5h75.053zm23.474-112.881h-70.058v-2.738c0-12.407 10.094-22.5 22.5-22.5h47.558zm0-40.238h-47.558c-20.678 0-37.5 16.822-37.5 37.5v8.238c0 5.238 4.262 9.5 9.5 9.5h75.558v37.881c0 1.378-1.121 2.5-2.5 2.5h-133.34v-23.26c0-12.407-10.094-22.5-22.5-22.5h-39.506c3.451-6.669 5.414-14.227 5.414-22.24s-1.962-15.571-5.414-22.24h39.506c12.406 0 22.5-10.093 22.5-22.5v-23.26h18.38c8.556 0 16.926-1.599 24.878-4.751 7.231-2.867 28.118-11.147 35.601-14.115 26.469-10.498 57.246 9.406 56.981 38.705z"/></g></svg>