<?xml version="1.0"?>
<svg xmlns="http://www.w3.org/2000/svg" viewBox="0 0 512 512" width="512" height="512"><g id="Icons_copy" data-name="Icons copy"><path d="M504.941,21.856l-63.232-9.885a8,8,0,0,0-9.14,6.669L390.458,288H363.41l9.495-72.081a8,8,0,0,0-6.684-8.947l3.226-20.434,15.62-11.359a8,8,0,0,0,3.2-5.222l13.723-86.916v-.007h0l2.5-15.805a8,8,0,0,0-6.654-9.15L334.612,48.1a8,8,0,0,0-9.15,6.654L309.243,157.479a8,8,0,0,0,1.432,5.954l11.36,15.62-3.227,20.432h0a8,8,0,0,0-9.115,6.453L294.57,288H281.554L279.7,215.8a8,8,0,0,0-8-7.795V187.313l13.657-13.656A8,8,0,0,0,287.705,168V64a8,8,0,0,0-11.578-7.155l-64,32A8,8,0,0,0,207.705,96v72a8,8,0,0,0,2.343,5.657l13.657,13.656V208a8,8,0,0,0-8,7.795L213.856,288H195.424c-7.533-28.511-12.969-52.129-17.019-73.908L155.006,88.25l7.865-1.463a7.932,7.932,0,0,0,1.671-.505L232.4,57.389a8,8,0,0,0,4.732-8.824l-5.85-31.46a8,8,0,0,0-7.586-6.532L149.987,8.005a8.107,8.107,0,0,0-1.741.13L14.538,33a8,8,0,0,0-6.4,9.328l11.7,62.922a7.993,7.993,0,0,0,9.328,6.4l62.921-11.7,23.4,125.842c3.478,18.708,6.439,38.67,9.22,62.209H108.9L87.307,171.391a24,24,0,0,0-47.2,8.741L60.085,288H24a8,8,0,0,0-8,8v32a8,8,0,0,0,8,8h8V464a32.036,32.036,0,0,0,32,32h56V480H64a16.019,16.019,0,0,1-16-16V336H88v40a8,8,0,0,0,8,8h24v16h16V384h24a8,8,0,0,0,8-8V336h24v88h16V336h96v80h16V336h24v40a8,8,0,0,0,8,8h24v16h16V384h24a8,8,0,0,0,8-8V336h40v80h16V336h8a8,8,0,0,0,8-8V296a8,8,0,0,0-8-8H471.43L511.609,31A8,8,0,0,0,504.941,21.856ZM356.023,221.56l-2.09,15.868-32.818-5.182,2.9-15.74ZM387.432,72.636l-1.25,7.915a8.007,8.007,0,0,1-9.148,6.641L345.426,82.2a8,8,0,0,1-6.655-9.148h0l1.248-7.9Zm-50.509,99.686-11.36-15.62,9.682-61.317a23.988,23.988,0,0,0,7.686,2.621L374.539,103a24.109,24.109,0,0,0,3.757.3,23.762,23.762,0,0,0,4.359-.406l-9.679,61.3-15.62,11.36a8,8,0,0,0-3.2,5.222l-3.743,23.706-15.8-2.5,3.742-23.706A8,8,0,0,0,336.923,172.322Zm-18.709,75.665,33.629,5.31L347.272,288H310.84ZM263.908,224l.41,16H231.092l.41-16Zm7.8-147.056V99.056l-48,24V100.944Zm-34.343,101.4-13.657-13.656V140.944l48-24v47.743l-13.657,13.656A8,8,0,0,0,255.705,184v24h-16V184A8,8,0,0,0,237.362,178.343ZM230.682,256h34.046l.82,32H229.862ZM25.328,47.265l124.979-23.24,66.421,2.315,3.5,18.842L159.083,71.217,34.1,94.456Zm105.886,175.6-23.4-125.842,31.46-5.849,23.4,125.843c3.927,21.12,9.125,43.894,16.208,70.982h-38.07C137.926,263.285,134.851,242.424,131.214,222.866Zm-50.9-1.364-15.733,2.914-2.913-15.733L77.4,205.77Zm-23.2-50.273a8,8,0,0,1,14.458,3.076l2.914,15.733-15.733,2.913-2.913-15.733A7.947,7.947,0,0,1,57.116,171.229ZM67.5,240.148l15.733-2.913L92.629,288H76.357ZM152,368H136V352H120v16H104V336h48Zm256,0H392V352H376v16H360V336h48Zm72-48H32V304H480Zm-24.764-32H406.652l3.419-21.865,15.807,2.471L428.35,252.8l-15.808-2.472,3.707-23.711,15.808,2.471,2.472-15.809-15.808-2.471,3.707-23.711,15.807,2.471,2.472-15.808L424.9,171.286l3.707-23.712,15.808,2.472,2.472-15.809-15.808-2.471,3.707-23.711,15.807,2.471,2.472-15.808-15.808-2.472,3.707-23.711,15.808,2.472L459.243,55.2l-15.808-2.472,3.707-23.711,47.423,7.414Z"/><path d="M464,432H384a7.994,7.994,0,0,0-3.578.845L366.111,440H353.889l-14.311-7.155A7.994,7.994,0,0,0,336,432H312a8,8,0,0,0-8,8H152a8,8,0,0,0-5.657,2.343l-16,16a8,8,0,0,0,0,11.314l16,16A8,8,0,0,0,152,488H304a8,8,0,0,0,8,8h24a7.994,7.994,0,0,0,3.578-.845L353.889,488h12.222l14.311,7.155A7.994,7.994,0,0,0,384,496h80a32,32,0,0,0,0-64ZM155.314,472l-8-8,8-8H304v16Zm216.264.845A7.994,7.994,0,0,0,368,472H352a7.994,7.994,0,0,0-3.578.845L334.111,480H320V448h14.111l14.311,7.155A7.994,7.994,0,0,0,352,456h16a7.994,7.994,0,0,0,3.578-.845L385.889,448H440v32H385.889ZM464,480h-8V448h8a16,16,0,0,1,0,32Z"/></g></svg>
