<svg height="512" viewBox="0 0 60 48" width="512" xmlns="http://www.w3.org/2000/svg"><g id="Page-1" fill="none" fill-rule="evenodd"><g id="030---Wrecking-Ball" fill="rgb(0,0,0)" fill-rule="nonzero" transform="translate(0 -1)"><path id="Shape" d="m49 17.052v-8.518l.363-.268c1.7190671-1.26557507 2.1511218-3.6530885.9846-5.44085215-1.1665217-1.78776364-3.5258405-2.35389653-5.3766-1.29014785l-13.066 7.53c-.4484836-2.35601366-2.5066824-4.06173807-4.905-4.065h-20c-2.76005315.00330612-4.99669388 2.23994685-5 5v22c0 1.6568542 1.34314575 3 3 3h1v2c-3.3137085 0-6 2.6862915-6 6s2.6862915 6 6 6h22c3.3137085 0 6-2.6862915 6-6s-2.6862915-6-6-6v-2h1c1.6568542 0 3-1.3431458 3-3v-10.9l15-11.088v7.04c-6.4103871.5360635-11.2578258 6.0315303-10.9895606 12.4586961.2682651 6.4271658 5.5567987 11.4995646 11.9895606 11.4995646s11.7212955-5.0723988 11.9895606-11.4995646c.2682652-6.4271658-4.5791735-11.9226326-10.9895606-12.4586961zm-19-7.052v14h-9c-.5522847 0-1-.4477153-1-1v-16h7c1.6568542 0 3 1.34314575 3 3zm2 33c0 2.209139-1.790861 4-4 4h-22c-2.209139 0-4-1.790861-4-4s1.790861-4 4-4h22c2.209139 0 4 1.790861 4 4zm-6-6h-18v-2h18zm3-4h-24c-.55228475 0-1-.4477153-1-1v-21h8c.5522847 0 1-.4477153 1-1 0-.55228475-.4477153-1-1-1h-7.816c.42225455-1.19435087 1.54921457-1.99474861 2.816-2h11v16c0 1.6568542 1.3431458 3 3 3h9v2h-3c-.5522847 0-1 .4477153-1 1s.4477153 1 1 1h3v2c0 .5522847-.4477153 1-1 1zm3-21.683 13.969-8.05c.9316458-.52888256 2.1140067-.24105349 2.6983174.65686723.5843106.89792073.3685848 2.09553725-.4923174 2.73313277l-16.175 11.951zm16 27.683c-5.5228475 0-10-4.4771525-10-10s4.4771525-10 10-10 10 4.4771525 10 10c-.0060624 5.5203344-4.4796656 9.9939376-10 10z"/><path id="Shape" d="m48 21c-4.4162219.0049599-7.9950401 3.5837781-8 8 0 .5522847.4477153 1 1 1s1-.4477153 1-1c.0033074-3.3123376 2.6876624-5.9966926 6-6 .5522847 0 1-.4477153 1-1s-.4477153-1-1-1z"/><path id="Shape" d="m23 12c.2651948-.0000566.5195073-.1054506.707-.293l1-1c.3789722-.3923789.3735524-1.01608478-.0121814-1.40181858-.3857338-.38573379-1.0094397-.39115363-1.4018186-.01218142l-1 1c-.2859079.2859943-.3714219.7160366-.216678 1.0896546.1547439.3736179.5192821.6172591.923678.6173454z"/><path id="Shape" d="m23 17c.2651948-.0000566.5195073-.1054506.707-.293l4-4c.2599566-.2510745.3642126-.6228779.2726972-.9725073-.0915155-.3496295-.3645604-.6226744-.7141899-.7141899-.3496294-.0915154-.7214328.0127406-.9725073.2726972l-4 4c-.2859079.2859943-.3714219.7160366-.216678 1.0896546.1547439.3736179.5192821.6172591.923678.6173454z"/><circle id="Oval" cx="6" cy="43.001" r="1"/><circle id="Oval" cx="28" cy="43.001" r="1"/><circle id="Oval" cx="17" cy="43.001" r="1"/></g></g></svg>