<svg xmlns="http://www.w3.org/2000/svg" xmlns:xlink="http://www.w3.org/1999/xlink" viewBox="0 0 600 600"><defs><style>.cls-1{fill:#fff;}.cls-2{fill:url(#Nepojmenovaný_přechod_79);}</style><linearGradient id="Nepojmenovaný_přechod_79" x1="92.16" y1="390.55" x2="255.84" y2="349.39" gradientUnits="userSpaceOnUse"><stop offset="0" stop-color="#95c11f"/><stop offset="0.11" stop-color="#8ebd20"/><stop offset="0.26" stop-color="#7cb222"/><stop offset="0.43" stop-color="#5e9f26"/><stop offset="0.63" stop-color="#34862c"/><stop offset="0.83" stop-color="#063"/></linearGradient></defs><g id="Vrstva_1" data-name="Vrstva 1"><path class="cls-1" d="M578.15,396.89,548.22,379.8c-.51-.28-52-28.71-90.61-1.05-18.22,13.05-37.75,19.66-58.07,19.66a91.94,91.94,0,0,1-13.45-1C366.6,394.47,348,385,336.37,372l-3.14-3.5,15.58-14L352,358c8.49,9.47,22.42,16.46,37.26,18.69,13.29,2,33.85,1.05,56.2-15,18.78-13.44,42.33-18.62,68.13-14.93,2.6.37,5.26.84,7.87,1.38q5.18,1.08,10.34,2.58L396.12,78.83,276.05,283.74l-14.47-8.48L310.64,357l36.62,67.26-18.39,10-36.51-67.07L168.73,161.27,54.5,351.52H105v18.6c-3.91,1.29-6.28,2.33-6.28,2.33H17.52L168.73,120.6l90.41,150.59L397.6,34.9,571.13,382.8Z"/><polygon class="cls-1" points="580.49 398.22 578.15 396.89 571.13 382.8 580.49 398.22"/><path class="cls-1" d="M71.91,453.4v54.1a5.17,5.17,0,0,1-5.14,5,5,5,0,0,1-5-5V468.9L48.54,487.24a5,5,0,0,1-4.12,2.11h-.19A5.17,5.17,0,0,1,40,487.24L26.92,468.9v38.6a5.09,5.09,0,0,1-10.18,0V453.4a5.09,5.09,0,0,1,5-5h.28a4.94,4.94,0,0,1,4,2.11l18.23,25.31,18.24-25.31a5,5,0,0,1,4.12-2.11h.09A5.23,5.23,0,0,1,71.91,453.4Z"/><path class="cls-1" d="M140.54,456.34a33.71,33.71,0,0,1,0,46.39,30,30,0,0,1-21.9,9.81,30.91,30.91,0,0,1-22.45-9.81,34.19,34.19,0,0,1,0-46.39,30.53,30.53,0,0,1,22.45-9.81A29.64,29.64,0,0,1,140.54,456.34Zm-1.19,23.2a23.75,23.75,0,0,0-6.24-16.05A19.72,19.72,0,0,0,118.64,457a19.94,19.94,0,0,0-14.85,6.51,23.36,23.36,0,0,0-6.23,16.05,23,23,0,0,0,6.23,15.95,20,20,0,0,0,14.85,6.6,19.81,19.81,0,0,0,14.47-6.6A23.34,23.34,0,0,0,139.35,479.54Z"/><path class="cls-1" d="M170,493.66a12.64,12.64,0,0,0,24.65-3.86V453.4a5.09,5.09,0,0,1,10.17,0v36.4a22.77,22.77,0,0,1-44.44,7,4.91,4.91,0,0,1,3.21-6.32A5,5,0,0,1,170,493.66Z"/><path class="cls-1" d="M219.52,507.5V453.4a5,5,0,0,1,5-5h30a5.08,5.08,0,0,1,5,5,5.17,5.17,0,0,1-5,5.14H229.69v16.78H251a5.09,5.09,0,0,1,0,10.17H229.69v16.88h24.83a5.09,5.09,0,0,1,0,10.17H224.84c-.19,0-.19-.09-.19-.09l-.09.09A5,5,0,0,1,219.52,507.5Z"/><path class="cls-1" d="M351.93,456.34a33.71,33.71,0,0,1,0,46.39,30,30,0,0,1-21.9,9.81,30.91,30.91,0,0,1-22.45-9.81,34.19,34.19,0,0,1,0-46.39A30.53,30.53,0,0,1,330,446.53,29.64,29.64,0,0,1,351.93,456.34Zm-1.19,23.2a23.79,23.79,0,0,0-6.23-16.05,19.77,19.77,0,0,0-29.33,0A23.32,23.32,0,0,0,309,479.54a22.92,22.92,0,0,0,6.23,15.95,19.59,19.59,0,0,0,29.33,0A23.38,23.38,0,0,0,350.74,479.54Z"/><path class="cls-1" d="M376.48,507.5V453.86a5,5,0,0,1,10.09,0v26.32l29.68-29.8a5,5,0,0,1,7.15,0,5.16,5.16,0,0,1,0,7.15l-20.16,20.08,20.34,26.68a4.91,4.91,0,0,1-.73,7.06,4.64,4.64,0,0,1-3.21,1.19,4.94,4.94,0,0,1-3.75-1.83l-19.8-25.95-9.52,9.72v13a5,5,0,0,1-10.09,0Z"/><path class="cls-1" d="M488,456.34a33.71,33.71,0,0,1,0,46.39,30,30,0,0,1-21.9,9.81,30.91,30.91,0,0,1-22.45-9.81,34.19,34.19,0,0,1,0-46.39,30.53,30.53,0,0,1,22.45-9.81A29.64,29.64,0,0,1,488,456.34Zm-1.19,23.2a23.74,23.74,0,0,0-6.23-16.05,19.76,19.76,0,0,0-29.32,0A23.32,23.32,0,0,0,445,479.54a22.92,22.92,0,0,0,6.23,15.95,19.58,19.58,0,0,0,29.32,0A23.33,23.33,0,0,0,486.81,479.54Z"/><path class="cls-1" d="M514.85,507.5V453.4a5,5,0,0,1,5-5,5.1,5.1,0,0,1,5.13,5v49h24.83a5.09,5.09,0,0,1,0,10.17h-30A5,5,0,0,1,514.85,507.5Z"/><path class="cls-1" d="M561.21,438.18a4.15,4.15,0,0,1,.74-2l5.22-8.07a5,5,0,0,1,4.4-2.65c2.93,0,6.6,1.83,6.6,3.57a3.91,3.91,0,0,1-1.56,2.75l-6.14,5.87a8.38,8.38,0,0,1-6.51,2.48C562.4,440.11,561.21,439.37,561.21,438.18Zm8.34,74.36a5.1,5.1,0,0,0,5.13-5V453.4a5.1,5.1,0,0,0-5.13-5,5,5,0,0,0-5,5v54.1A5,5,0,0,0,569.55,512.54Z"/><path class="cls-2" d="M265.65,371.9c-1.16,1.31-20.51,22.56-52.51,36.85.5-2.68-1.76-6.08-1.76-6.08,1.53,2.19-2.39,7.56-2.7,8h0a146.47,146.47,0,0,1-15,5.26c2-2.73-2.88-8.47-2.88-8.47,2.74,5.73-4.23,10.36-4.23,10.36a138.32,138.32,0,0,1-16.46,2.91h0c4.09-3.45,1-11.94-.41-15.29,2.74,7.81-9.63,15.65-10.33,16.1h0c-4.22.16-8.53.13-12.94-.14,4.34-3.22-1.14-10.72-1.14-10.72,1.6,6.85-9.86,9.45-9.86,9.45a46.81,46.81,0,0,1-34.18-30.31c9-9.9,21.79-11.7,31.9-11.18a64.83,64.83,0,0,1,19.81,4.3c60,23,75.1,3,75.1,3-14.26,9.36-47.33,2.52-70.2-13.52-17-11.93-41.51-6.1-52.9-2.33-3.91,1.29-6.28,2.33-6.28,2.33a46.34,46.34,0,0,1,5.92-20.93,46.83,46.83,0,0,1,40.84-23.91c.82,0,1.65,0,2.46.07s1.55.09,2.32.17l.08,0a72.65,72.65,0,0,1,9.06,1.85h0a87.6,87.6,0,0,1,34.26,18.1C215.67,366.74,245.53,387.35,265.65,371.9Z"/></g></svg>