<svg xmlns="http://www.w3.org/2000/svg" xmlns:xlink="http://www.w3.org/1999/xlink" viewBox="0 0 1441.55 399.36"><defs><style>.cls-1{fill:none;stroke:#000;stroke-miterlimit:10;stroke-width:13px;}.cls-2{fill:#fff;}.cls-3{fill:url(#Nepojmenovaný_přechod_79);}</style><linearGradient id="Nepojmenovaný_přechod_79" x1="74.64" y1="350.36" x2="238.32" y2="309.2" gradientUnits="userSpaceOnUse"><stop offset="0" stop-color="#95c11f"/><stop offset="0.11" stop-color="#8ebd20"/><stop offset="0.26" stop-color="#7cb222"/><stop offset="0.43" stop-color="#5e9f26"/><stop offset="0.63" stop-color="#34862c"/><stop offset="0.83" stop-color="#063"/></linearGradient></defs><g id="Vrstva_1" data-name="Vrstva 1"><path class="cls-1" d="M460.72,359.76"/><path class="cls-2" d="M560.63,362,530.7,344.9c-.51-.28-52-28.71-90.61-1-18.21,13-37.75,19.66-58.07,19.66a91.94,91.94,0,0,1-13.45-1c-19.49-2.94-38.08-12.44-49.72-25.43l-3.14-3.5,15.58-14,3.15,3.49c8.49,9.47,22.42,16.46,37.25,18.69,13.3,2,33.85,1,56.2-15,18.78-13.45,42.33-18.62,68.13-14.94,2.6.38,5.26.85,7.87,1.39q5.17,1.08,10.34,2.58L378.61,43.93,258.53,248.83l-14.46-8.47,49.06,81.72,36.62,67.26-18.39,10-36.52-67.07L151.21,126.37,37,316.62H87.45v18.59c-3.91,1.29-6.28,2.34-6.28,2.34H0L151.21,85.69l90.41,150.6L380.08,0,553.61,347.9Z"/><polygon class="cls-2" points="562.97 363.32 560.63 361.99 553.61 347.9 562.97 363.32"/><path class="cls-2" d="M672.05,176v82.23a7.85,7.85,0,0,1-7.8,7.66,7.64,7.64,0,0,1-7.66-7.66V199.54l-20.05,27.88a7.6,7.6,0,0,1-6.27,3.2H630a7.86,7.86,0,0,1-6.41-3.2l-19.91-27.88v58.68a7.73,7.73,0,0,1-15.46,0V176a7.73,7.73,0,0,1,7.66-7.67h.42a7.52,7.52,0,0,1,6.12,3.21L630.13,210l27.72-38.46a7.6,7.6,0,0,1,6.26-3.21h.14A8,8,0,0,1,672.05,176Z"/><path class="cls-2" d="M776.37,180.45a51.22,51.22,0,0,1,0,70.52,45.6,45.6,0,0,1-33.29,14.91A47,47,0,0,1,709,251a52,52,0,0,1,0-70.52,46.47,46.47,0,0,1,34.12-14.92A45.09,45.09,0,0,1,776.37,180.45Zm-1.81,35.26a36.11,36.11,0,0,0-9.47-24.39,30,30,0,0,0-44.57,0,35.46,35.46,0,0,0-9.47,24.39A34.85,34.85,0,0,0,720.52,240a29.77,29.77,0,0,0,44.57,0A35.49,35.49,0,0,0,774.56,215.71Z"/><path class="cls-2" d="M821.08,237.17a19.21,19.21,0,0,0,37.46-5.85V176A7.73,7.73,0,0,1,874,176v55.33a34.61,34.61,0,0,1-67.54,10.59,7.49,7.49,0,0,1,4.87-9.62A7.58,7.58,0,0,1,821.08,237.17Z"/><path class="cls-2" d="M896.43,258.22V176a7.56,7.56,0,0,1,7.66-7.67h45.54a7.73,7.73,0,0,1,7.66,7.67,7.85,7.85,0,0,1-7.66,7.8H911.89V209.3h32.45a7.74,7.74,0,0,1,0,15.47H911.89v25.64h37.74a7.74,7.74,0,0,1,0,15.47H904.51c-.28,0-.28-.14-.28-.14l-.14.14A7.63,7.63,0,0,1,896.43,258.22Z"/><path class="cls-2" d="M1097.68,180.45a51.24,51.24,0,0,1,0,70.52,45.62,45.62,0,0,1-33.29,14.91A47,47,0,0,1,1030.27,251a52,52,0,0,1,0-70.52,46.45,46.45,0,0,1,34.12-14.92A45.11,45.11,0,0,1,1097.68,180.45Zm-1.81,35.26a36.11,36.11,0,0,0-9.47-24.39,30,30,0,0,0-44.57,0,35.46,35.46,0,0,0-9.47,24.39,34.85,34.85,0,0,0,9.47,24.25,29.77,29.77,0,0,0,44.57,0A35.49,35.49,0,0,0,1095.87,215.71Z"/><path class="cls-2" d="M1135,258.22V176.68a7.66,7.66,0,1,1,15.32,0v40l45.12-45.29a7.55,7.55,0,0,1,10.86,0,7.82,7.82,0,0,1,0,10.87l-30.64,30.52,30.92,40.56a7.46,7.46,0,0,1-1.11,10.73,7.1,7.1,0,0,1-4.88,1.81,7.52,7.52,0,0,1-5.71-2.79l-30.08-39.44-14.48,14.78v19.79a7.66,7.66,0,1,1-15.32,0Z"/><path class="cls-2" d="M1304.5,180.45a51.22,51.22,0,0,1,0,70.52,45.58,45.58,0,0,1-33.28,14.91A47,47,0,0,1,1237.1,251a52,52,0,0,1,0-70.52,46.45,46.45,0,0,1,34.12-14.92A45.07,45.07,0,0,1,1304.5,180.45Zm-1.81,35.26a36.11,36.11,0,0,0-9.47-24.39,30,30,0,0,0-44.56,0,35.46,35.46,0,0,0-9.48,24.39,34.86,34.86,0,0,0,9.48,24.25,29.76,29.76,0,0,0,44.56,0A35.49,35.49,0,0,0,1302.69,215.71Z"/><path class="cls-2" d="M1345.32,258.22V176a7.64,7.64,0,0,1,7.66-7.67,7.77,7.77,0,0,1,7.8,7.67v74.42h37.74a7.74,7.74,0,0,1,0,15.47H1353A7.63,7.63,0,0,1,1345.32,258.22Z"/><path class="cls-2" d="M1415.79,152.85a6.36,6.36,0,0,1,1.11-3.06l7.94-12.27a7.63,7.63,0,0,1,6.69-4c4.45,0,10,2.79,10,5.43,0,1.54-1,2.93-2.36,4.19l-9.33,8.92a12.78,12.78,0,0,1-9.89,3.76C1417.6,155.78,1415.79,154.66,1415.79,152.85Zm12.67,113a7.75,7.75,0,0,0,7.8-7.66V176a7.76,7.76,0,0,0-7.8-7.67,7.56,7.56,0,0,0-7.66,7.67v82.23A7.55,7.55,0,0,0,1428.46,265.88Z"/><path class="cls-3" d="M248.14,331.71c-1.17,1.3-20.52,22.55-52.52,36.85.5-2.69-1.76-6.09-1.76-6.09,1.54,2.19-2.39,7.56-2.7,8,0,0,0,0,0,0a148.9,148.9,0,0,1-15,5.25c2-2.73-2.88-8.46-2.88-8.46,2.74,5.72-4.23,10.35-4.23,10.35a138.31,138.31,0,0,1-16.46,2.92h0c4.1-3.46,1-11.95-.4-15.29,2.74,7.8-9.64,15.65-10.34,16.09h0c-4.22.16-8.53.14-12.94-.13,4.34-3.23-1.14-10.72-1.14-10.72,1.6,6.85-9.86,9.44-9.86,9.44a46.8,46.8,0,0,1-34.17-30.31c9-9.9,21.79-11.7,31.89-11.17a64.53,64.53,0,0,1,19.81,4.3c60,23,75.1,3,75.1,3-14.25,9.37-47.33,2.53-70.19-13.51-17-11.93-41.51-6.1-52.91-2.34-3.91,1.29-6.28,2.34-6.28,2.34a46.75,46.75,0,0,1,46.76-44.84c.82,0,1.65,0,2.46.06s1.56.1,2.32.18h.08a74.18,74.18,0,0,1,9.06,1.85s0,0,.05,0a87.35,87.35,0,0,1,34.26,18.09C198.15,326.55,228,347.16,248.14,331.71Z"/></g></svg>